<?xml version="1.0" standalone="no"?>
<!DOCTYPE svg PUBLIC "-//W3C//DTD SVG 20010904//EN"
 "http://www.w3.org/TR/2001/REC-SVG-20010904/DTD/svg10.dtd">
<svg version="1.0" xmlns="http://www.w3.org/2000/svg"
 width="700.000000pt" height="700.000000pt" viewBox="0 0 700.000000 700.000000"
 preserveAspectRatio="xMidYMid meet">
<metadata>
Created by potrace 1.11, written by Peter Selinger 2001-2013
</metadata>
<g transform="translate(0.000000,700.000000) scale(0.100000,-0.100000)"
fill="#000000" stroke="none">
<path d="M3427 6734 c-1 -1 -49 -4 -107 -8 -58 -3 -118 -8 -135 -10 -16 -2
-59 -7 -95 -11 -36 -4 -81 -11 -100 -15 -19 -5 -57 -12 -83 -14 -26 -3 -51 -7
-56 -10 -4 -3 -19 -7 -34 -10 -114 -20 -365 -99 -532 -166 -302 -120 -683
-358 -915 -571 -227 -207 -400 -406 -547 -628 -264 -400 -447 -882 -499 -1317
-3 -23 -7 -51 -9 -63 -23 -122 -23 -535 1 -731 17 -139 61 -365 91 -465 54
-180 71 -229 115 -340 48 -120 156 -339 188 -385 11 -16 20 -31 20 -34 0 -11
106 -173 174 -266 315 -431 730 -776 1208 -1004 144 -69 166 -78 268 -116 195
-72 303 -103 508 -144 130 -27 175 -33 352 -52 140 -15 592 -8 690 11 14 2 68
11 120 19 464 73 891 240 1293 508 451 299 817 708 1065 1188 87 168 135 279
189 435 33 96 97 329 108 397 3 18 10 58 15 88 5 30 12 75 15 100 3 25 8 56
10 70 23 133 23 577 1 710 -3 14 -8 48 -11 75 -4 28 -8 59 -10 70 -9 67 -40
213 -61 290 -14 50 -32 114 -40 143 -26 98 -105 296 -173 437 -203 421 -475
764 -865 1093 -104 88 -317 233 -451 307 -425 236 -866 370 -1347 410 -69 6
-356 13 -361 9z"/>
</g>
</svg>
