<?xml version="1.0" encoding="UTF-8" standalone="no"?>
<!DOCTYPE svg PUBLIC "-//W3C//DTD SVG 1.1//EN" "http://www.w3.org/Graphics/SVG/1.1/DTD/svg11.dtd">
<svg version="1.1" xmlns="http://www.w3.org/2000/svg" xmlns:xlink="http://www.w3.org/1999/xlink" preserveAspectRatio="xMidYMid meet" viewBox="0 0 640 640" width="320" height="320"><defs><path d="M614.51 315.6C614.51 474.2 483.77 602.97 322.75 602.97C161.72 602.97 30.99 474.2 30.99 315.6C30.99 157 161.72 28.24 322.75 28.24C483.77 28.24 614.51 157 614.51 315.6Z" id="a54UAl6sU6"></path><path d="M87.27 360C81.75 360 80 355.52 80 350C80 344 80 296 80 290C80 284.48 81.75 280 87.27 280C88.79 280 96.36 280 110 280L110 360C96.36 360 88.79 360 87.27 360Z" id="cgcH8EcHq"></path><linearGradient id="gradientbdZvP8OsO" gradientUnits="userSpaceOnUse" x1="95" y1="275.83" x2="95" y2="365.32"><stop style="stop-color: #6dc7ff;stop-opacity: 1" offset="0%"></stop><stop style="stop-color: #e6abff;stop-opacity: 1" offset="100%"></stop></linearGradient><path d="M360 320C360 303.43 350 290 330 290C330 294 330 314 330 350C350 341.05 360 331.05 360 320Z" id="c8WeYCyRiz"></path><linearGradient id="gradientb10ZfTbRLH" gradientUnits="userSpaceOnUse" x1="345" y1="275.83" x2="345" y2="365.32"><stop style="stop-color: #6dc7ff;stop-opacity: 1" offset="0%"></stop><stop style="stop-color: #e6abff;stop-opacity: 1" offset="100%"></stop></linearGradient><path d="M299.81 250C305.38 175.64 318.9 133.71 326.71 130C326.73 130 326.88 130 326.9 130C332.42 132.5 345.9 160.17 353.04 231.01C355.08 230.81 371.36 229.2 373.4 229C365.65 152.22 350 112.36 330 110.21C330 110.2 330 110.13 330 110C325.71 110 323.33 110 322.85 110C310.43 110 298.89 114.52 289.45 123.1C283.11 128.89 251.39 157.86 194.3 210C160.08 210 141.07 210 137.27 210C121.21 210 110 222.9 110 240C110 241.33 110 248 110 260C96.37 260 88.79 260 87.28 260C71.21 260 60 272.9 60 290C60 296 60 344 60 350C60 367.1 71.21 380 87.28 380C88.79 380 96.37 380 110 380C110 392 110 398.67 110 400C110 417.1 121.21 430 137.28 430C141.08 430 160.09 430 194.31 430C251.41 482.15 283.14 511.13 289.48 516.92C298.89 525.48 310.43 530 322.85 530C323.33 530 325.71 530 330 530C330 529.87 330 529.8 330 529.79C350 527.64 365.65 487.77 373.4 411C371.39 410.8 355.28 409.19 353.27 408.99C346.13 479.83 332.43 507.5 327.84 510C327.82 510 327.68 510 327.66 510C319.11 506.29 305.42 464.36 299.82 390C302.57 390 324.52 390 327.27 390C365.86 390 397.27 358.59 397.27 320C397.27 281.41 365.87 250 327.28 250C321.79 250 302.56 250 299.81 250ZM80 350C80 344 80 296 80 290C80 285.39 81.23 280 87.28 280C88.79 280 96.37 280 110 280L110 360L87.28 360C82.43 356.41 80 353.07 80 350ZM137.28 410C131.23 410 130 404.61 130 400C130 384 130 256 130 240C130 235.39 131.23 230 137.28 230C138.13 230 142.37 230 150 230L150 320L170 320L170 230L190 230L190 410C158.37 410 140.79 410 137.28 410ZM210 223.58C263.37 174.58 293.02 147.36 298.95 141.92C278.05 199.08 277.5 313.58 277.5 320C277.5 326.42 278.16 440.92 299.07 498.08C293.13 492.64 263.44 465.42 210 416.42L210 223.58ZM298.57 370C297.77 354.48 297.28 337.9 297.28 320C297.28 302.1 297.77 285.52 298.56 270C301.43 270 324.41 270 327.28 270C354.85 270 377.28 292.43 377.28 320C377.28 347.57 354.84 370 327.28 370C321.54 370 301.44 370 298.57 370Z" id="a4bkxnwpUr"></path><linearGradient id="gradientdT3TBhrRQ" gradientUnits="userSpaceOnUse" x1="228.64" y1="102.5" x2="228.64" y2="536.29"><stop style="stop-color: #1a6dff;stop-opacity: 1" offset="0%"></stop><stop style="stop-color: #c822ff;stop-opacity: 1" offset="100%"></stop></linearGradient><path d="M566.77 256.36L517.27 305.86L467.77 256.36L453.63 270.5L503.13 320L453.63 369.5L467.77 383.64L517.27 334.14L566.77 383.64L580.91 369.5L531.41 320L580.91 270.5L566.77 256.36Z" id="akJLh3Igw"></path><linearGradient id="gradientb3s0s56g55" gradientUnits="userSpaceOnUse" x1="517.27" y1="102.5" x2="517.27" y2="536.29"><stop style="stop-color: #1a6dff;stop-opacity: 1" offset="0%"></stop><stop style="stop-color: #c822ff;stop-opacity: 1" offset="100%"></stop></linearGradient></defs><g><g><g><use xlink:href="#a54UAl6sU6" opacity="1" fill="#ffffff" fill-opacity="1"></use><g><use xlink:href="#a54UAl6sU6" opacity="1" fill-opacity="0" stroke="#000000" stroke-width="8" stroke-opacity="1"></use></g></g><g><use xlink:href="#cgcH8EcHq" opacity="1" fill="url(#gradientbdZvP8OsO)"></use><g><use xlink:href="#cgcH8EcHq" opacity="1" fill-opacity="0" stroke="#000000" stroke-width="1" stroke-opacity="0"></use></g></g><g><use xlink:href="#c8WeYCyRiz" opacity="1" fill="url(#gradientb10ZfTbRLH)"></use><g><use xlink:href="#c8WeYCyRiz" opacity="1" fill-opacity="0" stroke="#000000" stroke-width="1" stroke-opacity="0"></use></g></g><g><use xlink:href="#a4bkxnwpUr" opacity="1" fill="url(#gradientdT3TBhrRQ)"></use><g><use xlink:href="#a4bkxnwpUr" opacity="1" fill-opacity="0" stroke="#000000" stroke-width="1" stroke-opacity="0"></use></g></g><g><use xlink:href="#akJLh3Igw" opacity="1" fill="url(#gradientb3s0s56g55)"></use><g><use xlink:href="#akJLh3Igw" opacity="1" fill-opacity="0" stroke="#000000" stroke-width="1" stroke-opacity="0"></use></g></g></g></g></svg>