<?xml version="1.0" encoding="UTF-8" standalone="no"?>
<!DOCTYPE svg PUBLIC "-//W3C//DTD SVG 1.1//EN" "http://www.w3.org/Graphics/SVG/1.1/DTD/svg11.dtd">
<svg version="1.1" xmlns="http://www.w3.org/2000/svg" xmlns:xlink="http://www.w3.org/1999/xlink" preserveAspectRatio="xMidYMid meet" viewBox="0 0 320 320" width="320" height="320"><defs><path d="M161.38 301.49C80.86 301.49 15.5 237.1 15.5 157.8C15.5 78.5 80.86 14.12 161.38 14.12C241.89 14.12 307.26 78.5 307.26 157.8C307.26 237.1 241.89 301.49 161.38 301.49Z" id="a4F0MzlWj"></path><path d="M161.38 301.49C80.86 301.49 15.5 237.1 15.5 157.8C15.5 78.5 80.86 14.12 161.38 14.12C241.89 14.12 307.26 78.5 307.26 157.8C307.26 237.1 241.89 301.49 161.38 301.49Z" id="a2sxvKTIoq"></path><path d="M40 175C40 172 40 148 40 145C40 142.24 40.88 140 43.64 140C44.4 140 48.18 140 55 140C55 144 55 176 55 180C48.18 180 44.4 180 43.64 180C40.88 180 40 177.76 40 175Z" id="f2d0KSM5w"></path><linearGradient id="gradientabGBHvFcV" gradientUnits="userSpaceOnUse" x1="47.5" y1="137.92" x2="47.5" y2="182.66"><stop style="stop-color: #6dc7ff;stop-opacity: 1" offset="0%"></stop><stop style="stop-color: #e6abff;stop-opacity: 1" offset="100%"></stop></linearGradient><path d="M40 175C40 172 40 148 40 145C40 142.24 40.88 140 43.64 140C44.4 140 48.18 140 55 140C55 144 55 176 55 180C48.18 180 44.4 180 43.64 180C40.88 180 40 177.76 40 175Z" id="avCaCtG1x"></path><path d="M165 145C165 147 165 157 165 175C175 170.53 180 165.53 180 160C180 151.72 175 145 165 145Z" id="c2UXp6MAQA"></path><linearGradient id="gradientaqTi7VZXO" gradientUnits="userSpaceOnUse" x1="172.5" y1="137.92" x2="172.5" y2="182.66"><stop style="stop-color: #6dc7ff;stop-opacity: 1" offset="0%"></stop><stop style="stop-color: #e6abff;stop-opacity: 1" offset="100%"></stop></linearGradient><path d="M165 145C165 147 165 157 165 175C175 170.53 180 165.53 180 160C180 151.72 175 145 165 145Z" id="b5SrL12SRP"></path><path d="M163.35 65C163.37 65 163.44 65 163.45 65C166.21 66.25 172.95 80.08 176.52 115.51C177.54 115.41 185.68 114.6 186.7 114.5C182.83 76.11 175 56.18 165 55.11C165 55.1 165 55.07 165 55C162.85 55 161.67 55 161.43 55C155.22 55 149.45 57.26 144.73 61.55C141.56 64.44 125.7 78.93 97.15 105C80.04 105 70.54 105 68.64 105C60.61 105 55 111.45 55 120C55 120.67 55 124 55 130C48.19 130 44.4 130 43.64 130C35.6 130 30 136.45 30 145C30 148 30 172 30 175C30 183.55 35.6 190 43.64 190C44.4 190 48.19 190 55 190C55 196 55 199.34 55 200C55 208.55 60.61 215 68.64 215C70.54 215 80.05 215 97.16 215C125.71 241.08 141.57 255.57 144.74 258.46C149.45 262.74 155.22 265 161.43 265C161.67 265 162.85 265 165 265C165 264.94 165 264.9 165 264.9C175 263.82 182.83 243.89 186.7 205.5C185.7 205.4 177.64 204.6 176.64 204.5C173.07 239.92 166.22 253.75 163.92 255C163.91 255 163.84 255 163.83 255C159.56 253.15 152.71 232.18 149.91 195C151.29 195 162.26 195 163.64 195C182.93 195 198.64 179.3 198.64 160C198.64 140.71 182.94 125 163.64 125C160.9 125 151.28 125 149.91 125C152.69 87.82 159.45 66.86 163.35 65ZM40 145C40 142.7 40.62 140 43.64 140C44.4 140 48.19 140 55 140C55 142.67 55 156 55 180C48.18 180 44.4 180 43.64 180C41.22 178.21 40 176.54 40 175C40 172 40 148 40 145ZM65 200C65 192 65 128 65 120C65 117.7 65.61 115 68.64 115C69.07 115 71.19 115 75 115C75 118 75 133 75 160L85 160L85 115L95 115C95 169 95 199 95 205C79.19 205 70.4 205 68.64 205C65.61 205 65 202.31 65 200ZM149.48 70.96C139.03 99.54 138.75 156.79 138.75 160C138.75 163.21 139.08 220.46 149.54 249.04C146.57 246.32 131.72 232.71 105 208.21C105 201.78 105 169.64 105 111.79C132.67 86.38 147.5 72.77 149.48 70.96ZM148.64 160C148.64 151.05 148.89 142.76 149.28 135C150.72 135 162.21 135 163.64 135C177.43 135 188.64 146.22 188.64 160C188.64 173.79 177.42 185 163.64 185C160.77 185 150.72 185 149.29 185C148.89 177.24 148.64 168.95 148.64 160Z" id="dgJ6eZLO5"></path><linearGradient id="gradientf1DNVoBAm4" gradientUnits="userSpaceOnUse" x1="114.32" y1="51.25" x2="114.32" y2="268.15"><stop style="stop-color: #1a6dff;stop-opacity: 1" offset="0%"></stop><stop style="stop-color: #c822ff;stop-opacity: 1" offset="100%"></stop></linearGradient><path d="M163.35 65C163.37 65 163.44 65 163.45 65C166.21 66.25 172.95 80.08 176.52 115.51C177.54 115.41 185.68 114.6 186.7 114.5C182.83 76.11 175 56.18 165 55.11C165 55.1 165 55.07 165 55C162.85 55 161.67 55 161.43 55C155.22 55 149.45 57.26 144.73 61.55C141.56 64.44 125.7 78.93 97.15 105C80.04 105 70.54 105 68.64 105C60.61 105 55 111.45 55 120C55 120.67 55 124 55 130C48.19 130 44.4 130 43.64 130C35.6 130 30 136.45 30 145C30 148 30 172 30 175C30 183.55 35.6 190 43.64 190C44.4 190 48.19 190 55 190C55 196 55 199.34 55 200C55 208.55 60.61 215 68.64 215C70.54 215 80.05 215 97.16 215C125.71 241.08 141.57 255.57 144.74 258.46C149.45 262.74 155.22 265 161.43 265C161.67 265 162.85 265 165 265C165 264.94 165 264.9 165 264.9C175 263.82 182.83 243.89 186.7 205.5C185.7 205.4 177.64 204.6 176.64 204.5C173.07 239.92 166.22 253.75 163.92 255C163.91 255 163.84 255 163.83 255C159.56 253.15 152.71 232.18 149.91 195C151.29 195 162.26 195 163.64 195C182.93 195 198.64 179.3 198.64 160C198.64 140.71 182.94 125 163.64 125C160.9 125 151.28 125 149.91 125C152.69 87.82 159.45 66.86 163.35 65ZM40 145C40 142.7 40.62 140 43.64 140C44.4 140 48.19 140 55 140C55 142.67 55 156 55 180C48.18 180 44.4 180 43.64 180C41.22 178.21 40 176.54 40 175C40 172 40 148 40 145ZM65 200C65 192 65 128 65 120C65 117.7 65.61 115 68.64 115C69.07 115 71.19 115 75 115C75 118 75 133 75 160L85 160L85 115L95 115C95 169 95 199 95 205C79.19 205 70.4 205 68.64 205C65.61 205 65 202.31 65 200ZM149.48 70.96C139.03 99.54 138.75 156.79 138.75 160C138.75 163.21 139.08 220.46 149.54 249.04C146.57 246.32 131.72 232.71 105 208.21C105 201.78 105 169.64 105 111.79C132.67 86.38 147.5 72.77 149.48 70.96ZM148.64 160C148.64 151.05 148.89 142.76 149.28 135C150.72 135 162.21 135 163.64 135C177.43 135 188.64 146.22 188.64 160C188.64 173.79 177.42 185 163.64 185C160.77 185 150.72 185 149.29 185C148.89 177.24 148.64 168.95 148.64 160Z" id="b4kTUfLsCE"></path><path d="M258.64 152.93L233.89 128.18L226.82 135.25L251.57 160L226.82 184.75L233.89 191.82L258.64 167.07L283.39 191.82L290.46 184.75L265.71 160L290.46 135.25L283.39 128.18L258.64 152.93Z" id="b1YfrpLtKt"></path><linearGradient id="gradientaqBSjeXHV" gradientUnits="userSpaceOnUse" x1="258.64" y1="51.25" x2="258.64" y2="268.15"><stop style="stop-color: #1a6dff;stop-opacity: 1" offset="0%"></stop><stop style="stop-color: #c822ff;stop-opacity: 1" offset="100%"></stop></linearGradient><path d="M258.64 152.93L233.89 128.18L226.82 135.25L251.57 160L226.82 184.75L233.89 191.82L258.64 167.07L283.39 191.82L290.46 184.75L265.71 160L290.46 135.25L283.39 128.18L258.64 152.93Z" id="bkYs3O1Id"></path></defs><g><g><g><use xlink:href="#a4F0MzlWj" opacity="1" fill="#ffffff" fill-opacity="1"></use><g><use xlink:href="#a4F0MzlWj" opacity="1" fill-opacity="0" stroke="#000000" stroke-width="16" stroke-opacity="0"></use></g></g><g><use xlink:href="#a2sxvKTIoq" opacity="1" fill="#000000" fill-opacity="0"></use><g><use xlink:href="#a2sxvKTIoq" opacity="1" fill-opacity="0" stroke="#000000" stroke-width="16" stroke-opacity="1"></use></g></g><g><use xlink:href="#f2d0KSM5w" opacity="1" fill="url(#gradientabGBHvFcV)"></use><g><use xlink:href="#f2d0KSM5w" opacity="1" fill-opacity="0" stroke="#000000" stroke-width="16" stroke-opacity="0"></use></g></g><g><use xlink:href="#avCaCtG1x" opacity="1" fill="#000000" fill-opacity="0"></use><g><use xlink:href="#avCaCtG1x" opacity="1" fill-opacity="0" stroke="#000000" stroke-width="16" stroke-opacity="0"></use></g></g><g><use xlink:href="#c2UXp6MAQA" opacity="1" fill="url(#gradientaqTi7VZXO)"></use><g><use xlink:href="#c2UXp6MAQA" opacity="1" fill-opacity="0" stroke="#000000" stroke-width="16" stroke-opacity="0"></use></g></g><g><use xlink:href="#b5SrL12SRP" opacity="1" fill="#000000" fill-opacity="0"></use><g><use xlink:href="#b5SrL12SRP" opacity="1" fill-opacity="0" stroke="#000000" stroke-width="16" stroke-opacity="0"></use></g></g><g><use xlink:href="#dgJ6eZLO5" opacity="1" fill="url(#gradientf1DNVoBAm4)"></use><g><use xlink:href="#dgJ6eZLO5" opacity="1" fill-opacity="0" stroke="#000000" stroke-width="16" stroke-opacity="0"></use></g></g><g><use xlink:href="#b4kTUfLsCE" opacity="1" fill="#000000" fill-opacity="0"></use><g><use xlink:href="#b4kTUfLsCE" opacity="1" fill-opacity="0" stroke="#000000" stroke-width="16" stroke-opacity="0"></use></g></g><g><use xlink:href="#b1YfrpLtKt" opacity="1" fill="url(#gradientaqBSjeXHV)"></use><g><use xlink:href="#b1YfrpLtKt" opacity="1" fill-opacity="0" stroke="#000000" stroke-width="16" stroke-opacity="0"></use></g></g><g><use xlink:href="#bkYs3O1Id" opacity="1" fill="#000000" fill-opacity="0"></use><g><use xlink:href="#bkYs3O1Id" opacity="1" fill-opacity="0" stroke="#000000" stroke-width="16" stroke-opacity="0"></use></g></g></g></g></svg>