<?xml version="1.0" standalone="no"?>
<!DOCTYPE svg PUBLIC "-//W3C//DTD SVG 20010904//EN"
 "http://www.w3.org/TR/2001/REC-SVG-20010904/DTD/svg10.dtd">
<svg version="1.0" xmlns="http://www.w3.org/2000/svg"
 width="700.000000pt" height="700.000000pt" viewBox="0 0 700.000000 700.000000"
 preserveAspectRatio="xMidYMid meet">
<metadata>
Created by potrace 1.11, written by Peter Selinger 2001-2013
</metadata>
<g transform="translate(0.000000,700.000000) scale(0.100000,-0.100000)"
fill="#000000" stroke="none">
<path d="M3408 6865 c-2 -1 -52 -5 -113 -9 -707 -40 -1434 -337 -1980 -809
-100 -87 -298 -288 -381 -387 -218 -262 -418 -595 -534 -895 -24 -60 -47 -119
-51 -130 -22 -54 -90 -288 -103 -355 -3 -14 -7 -36 -10 -50 -28 -130 -51 -285
-63 -435 -12 -155 -6 -478 12 -615 1 -14 6 -50 10 -80 27 -226 131 -610 216
-797 10 -24 19 -45 19 -48 0 -13 114 -242 165 -330 81 -141 251 -391 295 -435
3 -3 29 -34 59 -70 87 -105 359 -369 472 -456 57 -45 156 -116 219 -158 63
-42 124 -83 136 -90 80 -54 348 -185 509 -249 181 -71 413 -141 535 -162 19
-3 42 -8 50 -10 17 -5 54 -11 115 -20 22 -3 65 -10 95 -15 183 -31 707 -34
858 -5 9 1 44 6 77 10 32 3 62 8 65 10 3 1 25 6 50 9 49 7 62 10 100 19 14 4
36 9 50 11 59 10 306 78 345 96 11 5 52 20 91 34 39 13 100 38 135 54 35 15
67 29 72 30 22 3 267 132 364 191 747 455 1282 1167 1502 2001 31 114 64 279
75 375 4 28 9 66 11 85 24 175 24 598 1 730 -3 14 -7 52 -11 85 -5 50 -46 270
-60 325 -120 474 -328 899 -619 1264 -103 130 -119 147 -256 287 -404 410
-913 708 -1480 869 -76 22 -267 65 -325 74 -166 26 -209 31 -329 42 -74 6
-383 13 -388 9z"/>
</g>
</svg>
